{
	"patcher" : 	{
		"fileversion" : 1,
		"appversion" : 		{
			"major" : 9,
			"minor" : 0,
			"revision" : 4,
			"architecture" : "x64",
			"modernui" : 1
		}
,
		"classnamespace" : "box",
		"rect" : [ 59.0, 100.0, 824.0, 764.0 ],
		"gridsize" : [ 15.0, 15.0 ],
		"boxes" : [ 			{
				"box" : 				{
					"id" : "obj-6",
					"maxclass" : "mc.ezdac~",
					"numinlets" : 1,
					"numoutlets" : 0,
					"patching_rect" : [ 240.559168010950089, 711.0, 45.0, 45.0 ]
				}

			}
, 			{
				"box" : 				{
					"id" : "obj-36",
					"linecount" : 4,
					"maxclass" : "comment",
					"numinlets" : 1,
					"numoutlets" : 0,
					"patching_rect" : [ 504.0, 416.0, 85.0, 60.0 ],
					"text" : "Chooses a specific audio file from the loaded folder"
				}

			}
, 			{
				"box" : 				{
					"id" : "obj-34",
					"justification" : 3,
					"maxclass" : "live.line",
					"numinlets" : 1,
					"numoutlets" : 0,
					"patching_rect" : [ 431.0, 391.0, 79.0, 31.0 ]
				}

			}
, 			{
				"box" : 				{
					"id" : "obj-33",
					"linecount" : 4,
					"maxclass" : "comment",
					"numinlets" : 1,
					"numoutlets" : 0,
					"patching_rect" : [ 26.0, 408.0, 135.0, 60.0 ],
					"text" : "Loads a folder containing audio files into the dropdown menu"
				}

			}
, 			{
				"box" : 				{
					"id" : "obj-31",
					"justification" : 4,
					"maxclass" : "live.line",
					"numinlets" : 1,
					"numoutlets" : 0,
					"patching_rect" : [ 145.0, 386.0, 99.0, 41.0 ]
				}

			}
, 			{
				"box" : 				{
					"id" : "obj-30",
					"linecount" : 2,
					"maxclass" : "comment",
					"numinlets" : 1,
					"numoutlets" : 0,
					"patching_rect" : [ 595.0, 265.0, 150.0, 33.0 ],
					"text" : "Defines the buffer length in seconds"
				}

			}
, 			{
				"box" : 				{
					"id" : "obj-28",
					"justification" : 4,
					"maxclass" : "live.line",
					"numinlets" : 1,
					"numoutlets" : 0,
					"patching_rect" : [ 418.0, 272.5, 181.0, 83.5 ]
				}

			}
, 			{
				"box" : 				{
					"id" : "obj-27",
					"linecount" : 2,
					"maxclass" : "comment",
					"numinlets" : 1,
					"numoutlets" : 0,
					"patching_rect" : [ 155.0, 163.5, 150.0, 33.0 ],
					"text" : "Overwrites the current buffer with new audio data"
				}

			}
, 			{
				"box" : 				{
					"id" : "obj-25",
					"justification" : 3,
					"maxclass" : "live.line",
					"numinlets" : 1,
					"numoutlets" : 0,
					"patching_rect" : [ 237.0, 198.5, 123.0, 146.5 ]
				}

			}
, 			{
				"box" : 				{
					"id" : "obj-24",
					"linecount" : 2,
					"maxclass" : "comment",
					"numinlets" : 1,
					"numoutlets" : 0,
					"patching_rect" : [ 40.0, 209.0, 150.0, 33.0 ],
					"text" : "Normalizes the sample to optimize its amplitude"
				}

			}
, 			{
				"box" : 				{
					"id" : "obj-21",
					"justification" : 3,
					"maxclass" : "live.line",
					"numinlets" : 1,
					"numoutlets" : 0,
					"patching_rect" : [ 173.0, 229.0, 151.0, 120.0 ]
				}

			}
, 			{
				"box" : 				{
					"id" : "obj-19",
					"linecount" : 2,
					"maxclass" : "comment",
					"numinlets" : 1,
					"numoutlets" : 0,
					"patching_rect" : [ 31.0, 254.0, 151.0, 33.0 ],
					"text" : "Erases the contents of the buffer"
				}

			}
, 			{
				"box" : 				{
					"id" : "obj-17",
					"justification" : 3,
					"maxclass" : "live.line",
					"numinlets" : 1,
					"numoutlets" : 0,
					"patching_rect" : [ 165.0, 273.0, 118.0, 72.0 ]
				}

			}
, 			{
				"box" : 				{
					"id" : "obj-16",
					"linecount" : 2,
					"maxclass" : "comment",
					"numinlets" : 1,
					"numoutlets" : 0,
					"patching_rect" : [ 40.0, 306.0, 150.0, 33.0 ],
					"text" : "Saves the current audio data into the file"
				}

			}
, 			{
				"box" : 				{
					"id" : "obj-14",
					"justification" : 3,
					"maxclass" : "live.line",
					"numinlets" : 1,
					"numoutlets" : 0,
					"patching_rect" : [ 165.0, 325.0, 79.0, 31.0 ]
				}

			}
, 			{
				"box" : 				{
					"id" : "obj-13",
					"linecount" : 3,
					"maxclass" : "comment",
					"numinlets" : 1,
					"numoutlets" : 0,
					"patching_rect" : [ 595.0, 392.0, 150.0, 47.0 ],
					"text" : "Randomly selects an audio file from the loaded folder"
				}

			}
, 			{
				"box" : 				{
					"id" : "obj-11",
					"justification" : 3,
					"maxclass" : "live.line",
					"numinlets" : 1,
					"numoutlets" : 0,
					"patching_rect" : [ 514.0, 379.0, 79.0, 31.0 ]
				}

			}
, 			{
				"box" : 				{
					"id" : "obj-10",
					"linecount" : 2,
					"maxclass" : "comment",
					"numinlets" : 1,
					"numoutlets" : 0,
					"patching_rect" : [ 595.0, 312.0, 150.0, 33.0 ],
					"text" : "Starts recording into the buffer"
				}

			}
, 			{
				"box" : 				{
					"id" : "obj-2",
					"justification" : 4,
					"maxclass" : "live.line",
					"numinlets" : 1,
					"numoutlets" : 0,
					"patching_rect" : [ 514.0, 325.0, 79.0, 31.0 ]
				}

			}
, 			{
				"box" : 				{
					"bgmode" : 0,
					"border" : 0,
					"clickthrough" : 0,
					"enablehscroll" : 0,
					"enablevscroll" : 0,
					"id" : "obj-9",
					"lockeddragscroll" : 0,
					"lockedsize" : 0,
					"maxclass" : "bpatcher",
					"name" : "te.player.maxpat",
					"numinlets" : 11,
					"numoutlets" : 1,
					"offset" : [ 0.0, 0.0 ],
					"outlettype" : [ "multichannelsignal" ],
					"patching_rect" : [ 240.559168010950089, 502.0, 279.881663978099823, 199.124265253543854 ],
					"varname" : "te.player",
					"viewvisibility" : 1
				}

			}
, 			{
				"box" : 				{
					"id" : "obj-7",
					"maxclass" : "newobj",
					"numinlets" : 1,
					"numoutlets" : 1,
					"outlettype" : [ "" ],
					"patching_rect" : [ 343.0, 188.0, 133.0, 22.0 ],
					"text" : "loadmess drumLoop.aif"
				}

			}
, 			{
				"box" : 				{
					"id" : "obj-3",
					"linecount" : 3,
					"maxclass" : "comment",
					"numinlets" : 1,
					"numoutlets" : 0,
					"patching_rect" : [ 601.0, 202.0, 151.0, 47.0 ],
					"text" : "Sends the buffer’s content to other modules or processes"
				}

			}
, 			{
				"box" : 				{
					"id" : "obj-23",
					"justification" : 4,
					"maxclass" : "live.line",
					"numinlets" : 1,
					"numoutlets" : 0,
					"patching_rect" : [ 520.0, 224.0, 79.0, 31.0 ]
				}

			}
, 			{
				"box" : 				{
					"bgmode" : 0,
					"border" : 0,
					"clickthrough" : 0,
					"enablehscroll" : 0,
					"enablevscroll" : 0,
					"id" : "obj-1",
					"lockeddragscroll" : 0,
					"lockedsize" : 0,
					"maxclass" : "bpatcher",
					"name" : "te.buffer.maxpat",
					"numinlets" : 6,
					"numoutlets" : 1,
					"offset" : [ 0.0, 0.0 ],
					"outlettype" : [ "" ],
					"patching_rect" : [ 229.0, 224.0, 303.0, 179.0 ],
					"varname" : "te.buffer",
					"viewvisibility" : 1
				}

			}
, 			{
				"box" : 				{
					"id" : "obj-8",
					"linecount" : 5,
					"maxclass" : "comment",
					"numinlets" : 1,
					"numoutlets" : 0,
					"patching_rect" : [ 625.0, 7.0, 206.0, 74.0 ],
					"text" : "te.buffer\n\nTesserae by Giorgio Bosso © 2025\n\nhttps://linktr.ee/giorgiobosso"
				}

			}
, 			{
				"box" : 				{
					"fontsize" : 12.0,
					"id" : "obj-4",
					"linecount" : 5,
					"maxclass" : "comment",
					"numinlets" : 1,
					"numoutlets" : 0,
					"patching_rect" : [ 1.0, 48.0, 404.0, 74.0 ],
					"text" : "Buffer is a module for storing and manipulating audio samples. It allows loading, recording, normalizing, and managing sample playback with flexible time settings. Users can load a folder containing audio files, select specific files from a dropdown menu, or randomly choose a file from the loaded folder"
				}

			}
, 			{
				"box" : 				{
					"fontsize" : 40.0,
					"id" : "obj-5",
					"maxclass" : "comment",
					"numinlets" : 1,
					"numoutlets" : 0,
					"patching_rect" : [ 1.0, 1.0, 297.0, 51.0 ],
					"text" : "te.buffer"
				}

			}
 ],
		"lines" : [ 			{
				"patchline" : 				{
					"destination" : [ "obj-9", 10 ],
					"source" : [ "obj-1", 0 ]
				}

			}
, 			{
				"patchline" : 				{
					"destination" : [ "obj-1", 2 ],
					"source" : [ "obj-7", 0 ]
				}

			}
, 			{
				"patchline" : 				{
					"destination" : [ "obj-6", 0 ],
					"source" : [ "obj-9", 0 ]
				}

			}
 ],
		"originid" : "pat-544",
		"parameters" : 		{
			"obj-1::obj-80" : [ "live.numbox", "live.numbox", 0 ],
			"obj-9::obj-101" : [ "Pitch", "Pitch", 0 ],
			"obj-9::obj-96" : [ "Start", "Start", 0 ],
			"obj-9::obj-97" : [ "Length", "Length", 0 ],
			"obj-9::obj-99" : [ "Speed", "Speed", 0 ],
			"parameterbanks" : 			{
				"0" : 				{
					"index" : 0,
					"name" : "",
					"parameters" : [ "-", "-", "-", "-", "-", "-", "-", "-" ]
				}

			}
,
			"inherited_shortname" : 1
		}
,
		"dependency_cache" : [ 			{
				"name" : "te.buffer.maxpat",
				"bootpath" : "~/Documents/Max 9/Packages/Tesserae/patchers",
				"patcherrelativepath" : "../patchers",
				"type" : "JSON",
				"implicit" : 1
			}
, 			{
				"name" : "te.player.maxpat",
				"bootpath" : "~/Documents/Max 9/Packages/Tesserae/patchers",
				"patcherrelativepath" : "../patchers",
				"type" : "JSON",
				"implicit" : 1
			}
 ],
		"autosave" : 0
	}

}
